<?xml version="1.0" standalone="no"?>
<!DOCTYPE svg PUBLIC "-//W3C//DTD SVG 20010904//EN"
 "http://www.w3.org/TR/2001/REC-SVG-20010904/DTD/svg10.dtd">
<svg version="1.0" xmlns="http://www.w3.org/2000/svg"
 width="1080.000000pt" height="1080.000000pt" viewBox="0 0 1080.000000 1080.000000"
 preserveAspectRatio="xMidYMid meet">
<metadata>
Created by potrace 1.14, written by Peter Selinger 2001-2017
</metadata>
<g transform="translate(0.000000,1080.000000) scale(0.100000,-0.100000)"
fill="#000000" stroke="none">
<path d="M0 5400 l0 -5400 5400 0 5400 0 0 5400 0 5400 -5400 0 -5400 0 0
-5400z m3942 2940 c108 -316 227 -662 264 -767 50 -145 70 -193 83 -193 12 0
67 149 240 658 123 361 242 708 264 770 l39 112 264 0 264 0 0 -1050 0 -1050
-195 0 -195 0 -2 693 c-3 669 -4 692 -22 692 -16 0 -56 -108 -260 -692 l-241
-693 -171 0 -171 0 -26 73 c-57 161 -457 1310 -457 1314 0 1 -9 3 -20 3 -20 0
-20 -7 -20 -695 l0 -695 -190 0 -190 0 0 1050 0 1050 272 -2 272 -3 198 -575z
m2953 561 c415 -67 667 -284 764 -656 34 -127 44 -251 38 -444 -6 -177 -18
-255 -58 -373 -112 -335 -362 -530 -754 -589 -66 -10 -211 -14 -535 -14 l-445
0 -3 1035 c-1 569 0 1041 3 1048 4 12 85 13 463 9 268 -3 486 -9 527 -16z
m-1305 -2851 c156 -52 240 -145 270 -297 18 -90 6 -176 -36 -265 -46 -95 -154
-202 -328 -323 -226 -158 -269 -198 -282 -263 l-6 -32 321 0 321 0 0 -120 0
-120 -470 0 -470 0 0 83 c0 100 14 190 40 260 37 98 117 176 367 356 156 112
221 171 246 223 56 118 13 241 -96 273 -69 20 -122 19 -203 -6 -59 -18 -77
-30 -138 -91 -38 -38 -74 -67 -80 -65 -7 3 -44 41 -84 85 l-72 79 30 39 c80
102 211 179 348 204 80 15 250 4 322 -20z m-1921 -2430 c176 -19 301 -72 412
-178 104 -98 161 -221 178 -387 37 -362 -140 -630 -474 -715 -67 -18 -124 -22
-352 -27 l-273 -6 0 -389 0 -388 -205 0 -205 0 0 1050 0 1050 413 0 c226 0
454 -5 506 -10z m1880 0 c279 -25 460 -93 617 -234 133 -119 212 -260 260
-466 31 -129 43 -404 25 -542 -34 -256 -111 -429 -256 -573 -89 -88 -178 -146
-300 -192 -177 -68 -325 -83 -847 -83 l-388 0 0 1050 0 1050 388 0 c213 0 438
-5 501 -10z m2681 -165 l0 -175 -455 0 -455 0 0 -275 0 -275 410 0 410 0 0
-175 0 -175 -410 0 -410 0 -2 -422 -3 -423 -207 -3 -208 -2 0 1050 0 1050 665
0 665 0 0 -175z"/>
<path d="M6320 7870 l0 -703 233 6 c254 6 314 15 424 68 172 82 266 241 294
496 21 200 -5 402 -72 540 -50 104 -114 170 -211 217 -125 61 -167 68 -430 73
l-238 5 0 -702z"/>
<path d="M3162 2973 l3 -328 215 0 c249 1 300 11 374 76 68 60 90 121 90 249
0 119 -19 178 -77 238 -73 76 -143 92 -408 92 l-199 0 2 -327z"/>
<path d="M5080 2580 l0 -703 233 6 c254 6 314 15 424 68 81 39 172 123 211
196 116 218 116 647 0 865 -43 80 -118 152 -202 193 -122 60 -166 67 -428 72
l-238 5 0 -702z"/>
</g>
</svg>
